Coordinates
version=1
nRows=33
nColumns=38
inDegrees=no

Units are S.I. units (second, meters, Newtons, ...)
If the header above contains a line with 'inDegrees', this indicates whether rotational values are in degrees (yes) or radians (no).

endheader
time	pelvis_tilt	pelvis_list	pelvis_rotation	pelvis_tx	pelvis_ty	pelvis_tz	hip_flexion_r	hip_adduction_r	hip_rotation_r	knee_angle_r	ankle_angle_r	subtalar_angle_r	mtp_angle_r	hip_flexion_l	hip_adduction_l	hip_rotation_l	knee_angle_l	ankle_angle_l	subtalar_angle_l	mtp_angle_l	lumbar_extension	lumbar_bending	lumbar_rotation	arm_flex_r	arm_add_r	arm_rot_r	elbow_flex_r	pro_sup_r	wrist_flex_r	wrist_dev_r	arm_flex_l	arm_add_l	arm_rot_l	elbow_flex_l	pro_sup_l	wrist_flex_l	wrist_dev_l
40	-0.873754	1.54207	2.54938	0.687135	0.572009	0.980151	-0.004528	-0.0461953	-0.262234	0.208099	0.127083	0	0	-0.0713192	-0.00495198	-0.0936537	0.0300447	0.0440522	0	0	-0.0165331	-0.0726647	0.0059396	-0.0958161	-0.140917	-0.0643805	0.235557	1.26714	0	0	-0.171166	-0.317054	0.43202	0.736271	0.83651	0	0
40.01	-0.946281	1.5441	2.62183	0.687948	0.571614	0.980321	-0.00816476	-0.0446224	-0.264175	0.205761	0.126447	0	0	-0.0730429	-0.0063859	-0.0966543	0.0312879	0.044349	0	0	-0.0198329	-0.0725902	0.00814004	-0.0941295	-0.139582	-0.0620263	0.231663	1.26485	0	0	-0.164492	-0.317358	0.43951	0.731521	0.83618	0	0
40.02	-1.00196	1.54543	2.67732	0.688788	0.57131	0.980385	-0.0114936	-0.0431681	-0.266086	0.202491	0.125957	0	0	-0.075	-0.00774349	-0.0993185	0.0304572	0.043973	0	0	-0.0215385	-0.0728082	0.00998705	-0.0931129	-0.138015	-0.0608214	0.228741	1.26296	0	0	-0.160427	-0.317483	0.442655	0.729276	0.837579	0	0
40.03	-1.05361	1.54624	2.7282	0.689649	0.57106	0.980401	-0.0145582	-0.0420189	-0.267036	0.198963	0.125573	0	0	-0.0776046	-0.00880394	-0.101609	0.0279015	0.0429088	0	0	-0.0224291	-0.0733386	0.0120451	-0.0925899	-0.136405	-0.0604594	0.226899	1.26098	0	0	-0.158094	-0.317188	0.442348	0.729103	0.839817	0	0
40.04	-1.10174	1.54667	2.7753	0.690499	0.570895	0.980398	-0.0176091	-0.0409925	-0.267061	0.195101	0.125128	0	0	-0.0806114	-0.00966063	-0.103152	0.0244058	0.0414707	0	0	-0.022562	-0.0741481	0.0136522	-0.0923012	-0.13467	-0.0603639	0.225706	1.25898	0	0	-0.157736	-0.316887	0.439504	0.730771	0.842856	0	0
40.05	-1.13863	1.5467	2.81155	0.691304	0.57085	0.98038	-0.020706	-0.0400179	-0.266525	0.190618	0.124629	0	0	-0.0832501	-0.0102826	-0.103446	0.0210296	0.040146	0	0	-0.0218164	-0.0752311	0.0144081	-0.0924265	-0.132706	-0.060406	0.22509	1.25703	0	0	-0.159127	-0.316734	0.434978	0.73383	0.846227	0	0
40.06	-1.17035	1.54657	2.84291	0.692069	0.57085	0.980369	-0.0232592	-0.0391486	-0.265421	0.187048	0.124237	0	0	-0.085502	-0.0107772	-0.102567	0.0181063	0.0389791	0	0	-0.0206875	-0.0763871	0.0144899	-0.0925909	-0.130633	-0.0601952	0.224729	1.25511	0	0	-0.161725	-0.316623	0.429476	0.738073	0.849368	0	0
40.07	-1.18902	1.5463	2.86162	0.692757	0.570855	0.980351	-0.0248508	-0.0385037	-0.264049	0.184693	0.124089	0	0	-0.0865623	-0.0112254	-0.101405	0.0167916	0.0384145	0	0	-0.0191065	-0.0774857	0.0140882	-0.0926026	-0.128617	-0.0595314	0.224063	1.25306	0	0	-0.164906	-0.316511	0.423905	0.74288	0.852082	0	0
40.08	-1.18485	1.54605	2.85816	0.693357	0.570839	0.980314	-0.0252265	-0.0378469	-0.262805	0.18371	0.124079	0	0	-0.086293	-0.0118372	-0.0998957	0.0167288	0.0381388	0	0	-0.0171406	-0.0781942	0.0128507	-0.0924591	-0.126777	-0.0583782	0.223425	1.25119	0	0	-0.16821	-0.316318	0.419101	0.74736	0.85401	0	0
40.09	-1.16228	1.54572	2.8367	0.693895	0.570767	0.980249	-0.0243604	-0.0373115	-0.261912	0.184223	0.124366	0	0	-0.0848706	-0.0124165	-0.098239	0.0176253	0.0381097	0	0	-0.0149468	-0.0786681	0.0111041	-0.0921021	-0.125203	-0.0556187	0.222753	1.24754	0	0	-0.171655	-0.31581	0.413933	0.75205	0.856136	0	0
40.1	-1.13828	1.5452	2.81386	0.694412	0.570666	0.980181	-0.0227182	-0.0371734	-0.261618	0.186064	0.125253	0	0	-0.0828983	-0.0127759	-0.0964937	0.0192101	0.0384364	0	0	-0.0128494	-0.079141	0.00939604	-0.091814	-0.12388	-0.0512473	0.222619	1.2416	0	0	-0.174875	-0.315253	0.409269	0.756412	0.858169	0	0
40.11	-1.13251	1.54467	2.80886	0.694921	0.570483	0.980151	-0.0209809	-0.0373852	-0.261259	0.188801	0.126574	0	0	-0.0810612	-0.0129238	-0.0956986	0.0214601	0.0391357	0	0	-0.0116545	-0.0795687	0.00813327	-0.0911475	-0.122796	-0.046704	0.222717	1.23418	0	0	-0.177161	-0.314782	0.406202	0.760037	0.860118	0	0
40.12	-1.14499	1.54412	2.8217	0.695417	0.570186	0.980136	-0.0190523	-0.0379675	-0.260909	0.192552	0.128209	0	0	-0.0796822	-0.0128312	-0.0958533	0.0236744	0.0397736	0	0	-0.0114268	-0.0800437	0.00741222	-0.0898964	-0.122042	-0.0420755	0.221876	1.22789	0	0	-0.178413	-0.314565	0.405289	0.763105	0.861679	0	0
40.13	-1.16114	1.5435	2.83822	0.695867	0.569797	0.980115	-0.0165831	-0.0388472	-0.260899	0.197106	0.129745	0	0	-0.0784986	-0.0125555	-0.0963632	0.0253538	0.0401025	0	0	-0.0118151	-0.0805244	0.00692023	-0.0883694	-0.121652	-0.0371575	0.220493	1.22219	0	0	-0.178814	-0.314299	0.405453	0.765185	0.862975	0	0
40.14	-1.1765	1.54306	2.8552	0.69624	0.569437	0.980107	-0.0150686	-0.0392672	-0.262166	0.200159	0.130625	0	0	-0.0774642	-0.0126168	-0.0962415	0.0265442	0.0401526	0	0	-0.0124932	-0.0808675	0.00564656	-0.0873253	-0.12127	-0.0324019	0.219944	1.21504	0	0	-0.178665	-0.314387	0.406959	0.76643	0.863774	0	0
40.15	-1.20763	1.54289	2.88842	0.696601	0.569064	0.980167	-0.0150377	-0.0392705	-0.264062	0.201537	0.13098	0	0	-0.0767303	-0.0129592	-0.0966268	0.0282008	0.0404382	0	0	-0.0140523	-0.0811055	0.00426198	-0.086167	-0.120862	-0.0280295	0.219405	1.20746	0	0	-0.177759	-0.314672	0.409724	0.767533	0.862384	0	0
40.16	-1.2386	1.54299	2.92237	0.696933	0.568726	0.980263	-0.0162319	-0.0386494	-0.267056	0.200949	0.130656	0	0	-0.076177	-0.0136968	-0.0962794	0.0295516	0.0406254	0	0	-0.0157336	-0.0811651	0.00220688	-0.085208	-0.120539	-0.0225839	0.218831	1.20068	0	0	-0.176615	-0.315121	0.413183	0.768337	0.860619	0	0
40.17	-1.26336	1.54309	2.94966	0.697265	0.568361	0.980351	-0.0172681	-0.0380525	-0.26983	0.199888	0.130075	0	0	-0.0756774	-0.0143626	-0.0962839	0.0304132	0.0406039	0	0	-0.0173206	-0.0810408	0.000800752	-0.0844535	-0.1205	-0.0171059	0.218501	1.19533	0	0	-0.174956	-0.315135	0.416619	0.767761	0.860183	0	0
40.18	-1.27973	1.54308	2.96804	0.697593	0.567984	0.9804	-0.0180473	-0.0375838	-0.272482	0.198707	0.129607	0	0	-0.0750685	-0.0148611	-0.0965756	0.0310254	0.0404689	0	0	-0.0185914	-0.0808968	0.00011775	-0.0839468	-0.120733	-0.0107971	0.218384	1.18985	0	0	-0.173012	-0.314871	0.420157	0.766323	0.860428	0	0
40.19	-1.2887	1.54284	2.97859	0.697914	0.567623	0.980408	-0.018753	-0.037314	-0.274988	0.197295	0.129431	0	0	-0.0741096	-0.0150931	-0.0974163	0.0319674	0.040558	0	0	-0.0195092	-0.0809194	-3.35517e-05	-0.0836009	-0.121195	-0.00388142	0.218364	1.1834	0	0	-0.171222	-0.31441	0.423379	0.764812	0.860479	0	0
40.2	-1.28846	1.54232	2.97963	0.698247	0.567297	0.980381	-0.0189939	-0.0373491	-0.277167	0.196236	0.129566	0	0	-0.0728328	-0.0149992	-0.0983291	0.0329967	0.0407179	0	0	-0.0199885	-0.0811452	0.000202238	-0.0836346	-0.121724	0.00337155	0.218426	1.1751	0	0	-0.169861	-0.313913	0.425867	0.763886	0.860159	0	0
40.21	-1.28085	1.5417	2.97328	0.698571	0.567039	0.980327	-0.0186507	-0.0375547	-0.279066	0.195929	0.129895	0	0	-0.0713223	-0.0148273	-0.0988355	0.0342076	0.0409851	0	0	-0.0199857	-0.0814103	0.000562189	-0.0843368	-0.122428	0.0127034	0.218911	1.16282	0	0	-0.168979	-0.313318	0.427727	0.762554	0.86095	0	0
40.22	-1.28086	1.54129	2.97409	0.698897	0.566877	0.980287	-0.018082	-0.0376953	-0.280328	0.196668	0.130407	0	0	-0.0704837	-0.0148156	-0.098771	0.0349975	0.0411689	0	0	-0.0199595	-0.0814198	0.00142445	-0.0854285	-0.123593	0.0253352	0.219692	1.14659	0	0	-0.168663	-0.312518	0.428774	0.761132	0.862785	0	0
40.23	-1.29021	1.54108	2.98419	0.6992	0.566765	0.98027	-0.0177389	-0.0377096	-0.281074	0.197773	0.130941	0	0	-0.0700397	-0.014974	-0.0983781	0.0358297	0.0414268	0	0	-0.0201745	-0.0812115	0.00245093	-0.0869631	-0.125098	0.0393801	0.221184	1.12906	0	0	-0.168643	-0.311365	0.428532	0.7603	0.863653	0	0
40.24	-1.30923	1.54094	3.00424	0.699468	0.56668	0.980283	-0.0180378	-0.0375932	-0.281493	0.198471	0.131329	0	0	-0.0699632	-0.0152136	-0.0974557	0.0366423	0.0416303	0	0	-0.0207132	-0.0809123	0.00318815	-0.0886806	-0.126931	0.0557685	0.223018	1.10946	0	0	-0.168912	-0.310176	0.427805	0.759629	0.863571	0	0
40.25	-1.32846	1.54071	3.02481	0.699703	0.566626	0.980311	-0.0183378	-0.0376142	-0.281957	0.199294	0.131754	0	0	-0.0697625	-0.0154285	-0.0962811	0.037715	0.0419215	0	0	-0.0211927	-0.0806958	0.00338899	-0.0905838	-0.128959	0.0746823	0.225309	1.08717	0	0	-0.169782	-0.309186	0.426887	0.759229	0.861878	0	0
40.26	-1.33886	1.54038	3.03685	0.699931	0.566629	0.980343	-0.0187531	-0.0375533	-0.282471	0.199453	0.131924	0	0	-0.0692997	-0.015653	-0.0944849	0.0388271	0.0421597	0	0	-0.0221323	-0.0805471	0.00588815	-0.0797512	-0.118661	-0.0475045	0.199975	1.23624	0	0	-0.168746	-0.308837	0.428759	0.758454	0.862343	0	0
40.27	-1.35059	1.54011	3.05016	0.700158	0.566643	0.980379	-0.0194911	-0.0373399	-0.282807	0.199053	0.131932	0	0	-0.0690732	-0.0159162	-0.0924349	0.0396337	0.0422095	0	0	-0.0223175	-0.0803934	0.00591951	-0.0802145	-0.118684	-0.0465895	0.198855	1.235	0	0	-0.170299	-0.308117	0.427012	0.758861	0.86146	0	0
40.28	-1.3512	1.53981	3.05217	0.700376	0.566657	0.980379	-0.0198043	-0.0371675	-0.283188	0.198728	0.132033	0	0	-0.0687095	-0.0161302	-0.0905329	0.0399777	0.0420038	0	0	-0.0220434	-0.0801938	0.00604019	-0.0806957	-0.118464	-0.0465964	0.197698	1.23297	0	0	-0.172018	-0.307499	0.42558	0.758998	0.860875	0	0
40.29	-1.33609	1.5394	3.03861	0.700543	0.566635	0.980329	-0.0194032	-0.0371972	-0.284117	0.198733	0.132301	0	0	-0.0678756	-0.0162024	-0.0889343	0.0400048	0.0416478	0	0	-0.0212138	-0.080032	0.0058558	-0.0813655	-0.117973	-0.0478345	0.196981	1.23007	0	0	-0.173988	-0.306838	0.42367	0.759005	0.860352	0	0
40.3	-1.32625	1.53915	3.03025	0.70072	0.566635	0.980294	-0.0193638	-0.0370298	-0.28509	0.198442	0.132502	0	0	-0.0675722	-0.0163526	-0.0877674	0.0394507	0.0412119	0	0	-0.0204952	-0.079709	0.00567892	-0.0823228	-0.117518	-0.0489372	0.196962	1.22885	0	0	-0.175882	-0.306319	0.4224	0.759125	0.859943	0	0
40.31	-1.31709	1.53892	3.02276	0.700886	0.566639	0.980288	-0.0194167	-0.0368293	-0.286472	0.198083	0.132566	0	0	-0.0671948	-0.0165314	-0.0869122	0.0390716	0.0408434	0	0	-0.0197451	-0.0793052	0.00524738	-0.083217	-0.11701	-0.0498419	0.196846	1.22739	0	0	-0.177673	-0.306129	0.422224	0.758173	0.860173	0	0
40.32	-1.31451	1.53869	3.02188	0.701051	0.566642	0.980304	-0.0196962	-0.0366562	-0.288128	0.197814	0.132627	0	0	-0.0671744	-0.0166596	-0.0863281	0.03838	0.0402282	0	0	-0.0192333	-0.078908	0.00466796	-0.0838165	-0.116402	-0.050508	0.196391	1.22579	0	0	-0.179384	-0.306031	0.422276	0.757427	0.859777	0	0
